<svg width="58" height="58" viewBox="0 0 58 58" fill="none" xmlns="http://www.w3.org/2000/svg">
<path d="M29.3202 31.08C29.1335 31.0533 28.8935 31.0533 28.6802 31.08C23.9868 30.92 20.2534 27.08 20.2534 22.3599C20.2534 17.5333 24.1468 13.6133 29.0002 13.6133C33.8268 13.6133 37.7468 17.5333 37.7468 22.3599C37.7202 27.08 34.0135 30.92 29.3202 31.08Z" stroke="white" stroke-width="4" stroke-linecap="round" stroke-linejoin="round"/>
<path d="M46.9735 48.6806C42.2268 53.0273 35.9335 55.6673 29.0002 55.6673C22.0669 55.6673 15.7735 53.0273 11.0269 48.6806C11.2935 46.174 12.8935 43.7206 15.7469 41.8006C23.0535 36.9473 35.0002 36.9473 42.2535 41.8006C45.1068 43.7206 46.7068 46.174 46.9735 48.6806Z" stroke="white" stroke-width="4" stroke-linecap="round" stroke-linejoin="round"/>
<path d="M29.0002 55.6668C43.7276 55.6668 55.6668 43.7276 55.6668 29.0002C55.6668 14.2726 43.7276 2.3335 29.0002 2.3335C14.2726 2.3335 2.3335 14.2726 2.3335 29.0002C2.3335 43.7276 14.2726 55.6668 29.0002 55.6668Z" stroke="white" stroke-width="4" stroke-linecap="round" stroke-linejoin="round"/>
</svg>
