<svg width="151" height="29" viewBox="0 0 151 29" fill="none" xmlns="http://www.w3.org/2000/svg">
<path d="M0.24 28V0.8H8.68C11.8 0.8 14.2 1.74667 15.88 3.64C17.56 5.50667 18.4 8.09333 18.4 11.4V17.36C18.4 20.6933 17.56 23.3067 15.88 25.2C14.2 27.0667 11.8 28 8.68 28H0.24ZM8.6 4.08H3.72V24.76H8.6C12.7333 24.76 14.8 22.2933 14.8 17.36V11.4C14.8 6.52 12.7333 4.08 8.6 4.08ZM67.0416 24.76V28H51.8416V0.8H66.6416V4.08H55.3216V12.6H65.4416V15.88H55.3216V24.76H67.0416ZM90.5716 0.8L81.8916 28H78.3716L69.6516 0.8H73.3316L77.6516 14.6L80.2516 23.32L82.8916 14.56L87.1316 0.8H90.5716ZM99.1106 28H95.6306V0.8H99.1106V28ZM107.623 28V0.8H116.063C119.183 0.8 121.583 1.74667 123.263 3.64C124.943 5.50667 125.783 8.09333 125.783 11.4V17.36C125.783 20.6933 124.943 23.3067 123.263 25.2C121.583 27.0667 119.183 28 116.063 28H107.623ZM115.983 4.08H111.103V24.76H115.983C120.116 24.76 122.183 22.2933 122.183 17.36V11.4C122.183 6.52 120.116 4.08 115.983 4.08ZM146.71 28L144.67 21.68H134.35L132.31 28H128.91L137.95 0.8H141.23L150.31 28H146.71ZM136.87 13.84L135.35 18.52H143.63L142.11 13.84L139.51 5.44L136.87 13.84Z" fill="#9D1717"/>
<path d="M29.1747 16.7556C29.1747 16.0946 28.6019 15.5587 27.8952 15.5587C27.1886 15.5587 26.6157 16.0946 26.6157 16.7556C26.6157 18.3801 26.9576 20.0319 28.0006 21.3002C29.0908 22.6258 30.7832 23.3381 33.0132 23.3381C33.7199 23.3381 34.2927 22.8023 34.2927 22.1413C34.2927 21.4803 33.7199 20.9445 33.0132 20.9445C31.4048 20.9445 30.5382 20.46 30.0289 19.8408C29.4726 19.1642 29.1747 18.1231 29.1747 16.7556Z" fill="#9D1717"/>
<path fill-rule="evenodd" clip-rule="evenodd" d="M35.2591 0.795664C34.2147 -0.265255 32.4503 -0.265213 31.406 0.795741C30.1283 2.09364 27.7704 4.61162 25.7235 7.48309C23.681 10.3483 21.7845 13.6116 21.8178 17.1561C21.8208 17.4696 21.8384 17.9096 21.8964 18.4345C22.0114 19.4772 22.2893 20.8923 22.9543 22.3263C23.6221 23.7666 24.694 25.2529 26.4039 26.3751C28.1216 27.5024 30.3892 28.2003 33.3325 28.2003C36.276 28.2003 38.5436 27.5024 40.2614 26.3751C41.9712 25.2529 43.0433 23.7667 43.7112 22.3264C44.3762 20.8924 44.6543 19.4772 44.7694 18.4345C44.8273 17.9097 44.845 17.4698 44.848 17.1562C44.8816 13.6117 42.9845 10.3481 40.9421 7.48301C38.8949 4.61153 36.5368 2.09355 35.2591 0.795664ZM27.9703 8.90853C29.8751 6.23648 32.0871 3.86131 33.3325 2.59232C34.5782 3.8613 36.7904 6.23647 38.6953 8.90853C40.4202 11.328 42.169 14.1265 42.1406 17.1333C42.1383 17.3786 42.1242 17.7369 42.0764 18.1699C41.98 19.043 41.7503 20.1822 41.2307 21.3025C40.7139 22.4166 39.9244 23.4847 38.7151 24.2782C37.5137 25.0667 35.8044 25.6459 33.3325 25.6459C30.8607 25.6459 29.1515 25.0667 27.9501 24.2782C26.7409 23.4847 25.9515 22.4166 25.4349 21.3025C24.9154 20.1822 24.6857 19.0431 24.5894 18.17C24.5416 17.7369 24.5276 17.3787 24.5253 17.1335C24.497 14.1266 26.2454 11.3282 27.9703 8.90853Z" fill="#9D1717"/>
</svg>
