<svg width="163" height="46" viewBox="0 0 163 46" fill="none" xmlns="http://www.w3.org/2000/svg">
<path d="M4.24 39V11.8H12.68C15.8 11.8 18.2 12.7467 19.88 14.64C21.56 16.5067 22.4 19.0933 22.4 22.4V28.36C22.4 31.6933 21.56 34.3067 19.88 36.2C18.2 38.0667 15.8 39 12.68 39H4.24ZM12.6 15.08H7.72V35.76H12.6C16.7333 35.76 18.8 33.2933 18.8 28.36V22.4C18.8 17.52 16.7333 15.08 12.6 15.08ZM71.0416 35.76V39H55.8416V11.8H70.6416V15.08H59.3216V23.6H69.4416V26.88H59.3216V35.76H71.0416ZM94.5716 11.8L85.8916 39H82.3716L73.6516 11.8H77.3316L81.6516 25.6L84.2516 34.32L86.8916 25.56L91.1316 11.8H94.5716ZM103.111 39H99.6306V11.8H103.111V39ZM111.623 39V11.8H120.063C123.183 11.8 125.583 12.7467 127.263 14.64C128.943 16.5067 129.783 19.0933 129.783 22.4V28.36C129.783 31.6933 128.943 34.3067 127.263 36.2C125.583 38.0667 123.183 39 120.063 39H111.623ZM119.983 15.08H115.103V35.76H119.983C124.116 35.76 126.183 33.2933 126.183 28.36V22.4C126.183 17.52 124.116 15.08 119.983 15.08ZM150.71 39L148.67 32.68H138.35L136.31 39H132.91L141.95 11.8H145.23L154.31 39H150.71ZM140.87 24.84L139.35 29.52H147.63L146.11 24.84L143.51 16.44L140.87 24.84Z" fill="white"/>
<path d="M34.6943 27.7554C34.6943 27.0944 34.0952 26.5586 33.3562 26.5586C32.6171 26.5586 32.0181 27.0944 32.0181 27.7554C32.0181 29.38 32.3756 31.0317 33.4664 32.3C34.6065 33.6256 36.3764 34.338 38.7086 34.338C39.4476 34.338 40.0467 33.8022 40.0467 33.1411C40.0467 32.4801 39.4476 31.9443 38.7086 31.9443C37.0265 31.9443 36.1202 31.4598 35.5876 30.8406C35.0057 30.164 34.6943 29.1229 34.6943 27.7554Z" fill="white"/>
<path fill-rule="evenodd" clip-rule="evenodd" d="M41.0574 11.7957C39.9651 10.7347 38.1199 10.7348 37.0277 11.7957C35.6916 13.0936 33.2257 15.6116 31.085 18.4831C28.949 21.3483 26.9656 24.6116 27.0005 28.1561C27.0035 28.4696 27.022 28.9096 27.0826 29.4345C27.2029 30.4772 27.4936 31.8923 28.1889 33.3263C28.8874 34.7666 30.0083 36.2529 31.7966 37.3751C33.5929 38.5024 35.9644 39.2003 39.0426 39.2003C42.1208 39.2003 44.4923 38.5024 46.2888 37.3751C48.0769 36.2529 49.1981 34.7667 49.8966 33.3264C50.5921 31.8924 50.8829 30.4772 51.0032 29.4345C51.0638 28.9097 51.0824 28.4698 51.0855 28.1562C51.1206 24.6117 49.1366 21.3481 47.0006 18.483C44.8597 15.6115 42.3936 13.0935 41.0574 11.7957ZM33.4347 19.9085C35.4267 17.2365 37.74 14.8613 39.0426 13.5923C40.3452 14.8613 42.6588 17.2365 44.651 19.9085C46.4548 22.328 48.2838 25.1265 48.254 28.1333C48.2516 28.3786 48.2369 28.7369 48.1869 29.1699C48.0861 30.043 47.8459 31.1822 47.3025 32.3025C46.7621 33.4166 45.9364 34.4847 44.6716 35.2782C43.4153 36.0667 41.6277 36.6459 39.0426 36.6459C36.4575 36.6459 34.67 36.0667 33.4136 35.2782C32.1491 34.4847 31.3234 33.4166 30.7832 32.3025C30.2399 31.1822 29.9997 30.0431 29.899 29.17C29.849 28.7369 29.8343 28.3787 29.8319 28.1335C29.8024 25.1266 31.6309 22.3282 33.4347 19.9085Z" fill="white"/>
</svg>
