<svg width="24" height="29" viewBox="0 0 24 29" fill="none" xmlns="http://www.w3.org/2000/svg">
<path d="M8.17473 16.7556C8.17473 16.0946 7.60187 15.5587 6.89522 15.5587C6.18857 15.5587 5.61572 16.0946 5.61572 16.7556C5.61572 18.3801 5.95763 20.0319 7.00062 21.3002C8.09077 22.6258 9.7832 23.3381 12.0132 23.3381C12.7199 23.3381 13.2927 22.8023 13.2927 22.1413C13.2927 21.4803 12.7199 20.9445 12.0132 20.9445C10.4048 20.9445 9.53818 20.46 9.02895 19.8408C8.47256 19.1642 8.17473 18.1231 8.17473 16.7556Z" fill="#9D1717"/>
<path fill-rule="evenodd" clip-rule="evenodd" d="M14.2591 0.795664C13.2147 -0.265255 11.4503 -0.265213 10.406 0.795741C9.12835 2.09364 6.77043 4.61162 4.7235 7.48309C2.68102 10.3483 0.784472 13.6116 0.817816 17.1561C0.820754 17.4696 0.838434 17.9096 0.896363 18.4345C1.01142 19.4772 1.28933 20.8923 1.95426 22.3263C2.62211 23.7666 3.69397 25.2529 5.40388 26.3751C7.12155 27.5024 9.38915 28.2003 12.3325 28.2003C15.276 28.2003 17.5436 27.5024 19.2614 26.3751C20.9712 25.2529 22.0433 23.7667 22.7112 22.3264C23.3762 20.8924 23.6543 19.4772 23.7694 18.4345C23.8273 17.9097 23.845 17.4698 23.848 17.1562C23.8816 13.6117 21.9845 10.3481 19.9421 7.48301C17.8949 4.61153 15.5368 2.09355 14.2591 0.795664ZM6.97027 8.90853C8.87505 6.23648 11.0871 3.86131 12.3325 2.59232C13.5782 3.8613 15.7904 6.23647 17.6953 8.90853C19.4202 11.328 21.169 14.1265 21.1406 17.1333C21.1383 17.3786 21.1242 17.7369 21.0764 18.1699C20.98 19.043 20.7503 20.1822 20.2307 21.3025C19.7139 22.4166 18.9244 23.4847 17.7151 24.2782C16.5137 25.0667 14.8044 25.6459 12.3325 25.6459C9.86065 25.6459 8.15148 25.0667 6.9501 24.2782C5.74095 23.4847 4.95145 22.4166 4.43487 21.3025C3.91536 20.1822 3.68573 19.0431 3.58938 18.17C3.5416 17.7369 3.52759 17.3787 3.52529 17.1335C3.49702 14.1266 5.24543 11.3282 6.97027 8.90853Z" fill="#9D1717"/>
</svg>
